<svg width="32" height="32" viewBox="0 0 32 32" fill="none" xmlns="http://www.w3.org/2000/svg">
<path d="M23.2929 10.0405C23.6834 10.431 24.3166 10.431 24.7071 10.0405C25.0976 9.64993 25.0976 9.01677 24.7071 8.62625L22.0404 5.95958C21.6499 5.56906 21.0168 5.56906 20.6262 5.95958L17.9596 8.62625C17.569 9.01677 17.569 9.64993 17.9596 10.0405C18.3501 10.431 18.9833 10.431 19.3738 10.0405L20.3333 9.0809L20.3333 22.6667C20.3333 23.219 20.781 23.6667 21.3333 23.6667C21.8856 23.6667 22.3333 23.219 22.3333 22.6667L22.3333 9.0809L23.2929 10.0405Z" fill="black"/>
<path d="M14.0404 21.9596C13.6499 21.5691 13.0168 21.5691 12.6262 21.9596L11.6667 22.9191L11.6667 9.33335C11.6667 8.78107 11.219 8.33335 10.6667 8.33335C10.1144 8.33335 9.66667 8.78107 9.66667 9.33335L9.66667 22.9191L8.70711 21.9596C8.31659 21.5691 7.68342 21.5691 7.2929 21.9596C6.90237 22.3501 6.90237 22.9833 7.2929 23.3738L9.95956 26.0405C10.3501 26.431 10.9833 26.431 11.3738 26.0405L14.0404 23.3738C14.431 22.9833 14.431 22.3501 14.0404 21.9596Z" fill="black"/>
</svg>
