<svg width="126" height="56" viewBox="0 0 126 56" fill="none" xmlns="http://www.w3.org/2000/svg">
<path fill-rule="evenodd" clip-rule="evenodd" d="M15.4647 0.314758H16.3718L27.6758 3.34447L38.9797 0.314758H39.8868L51.1908 3.34447L62.4948 0.314758H63.4018L74.7058 3.34447L86.0098 0.314758H86.9169L98.2209 3.34447L109.525 0.314758H110.432L122.624 3.58242L120.848 10.2071L109.978 7.29382L98.2209 10.4451L86.4633 7.29382L74.7058 10.4451L62.9483 7.29382L51.1908 10.4451L39.4333 7.29382L27.6758 10.4451L15.9183 7.29382L5.04852 10.2071L3.27295 3.58242L15.4647 0.314758Z" fill="black"/>
<path fill-rule="evenodd" clip-rule="evenodd" d="M125.909 15.7819L125.909 16.6889L122.879 27.9929L125.909 39.2969L125.909 40.204L122.642 52.3957L116.017 50.6202L118.93 39.7504L115.779 27.9929L118.93 16.2354L116.017 5.36566L122.642 3.59009L125.909 15.7819Z" fill="black"/>
<path fill-rule="evenodd" clip-rule="evenodd" d="M5.32919e-07 15.7819L5.72569e-07 16.6889L3.02971 27.9929L1.56079e-06 39.2969L1.60044e-06 40.204L3.26766 52.3957L9.89239 50.6202L6.97907 39.7504L10.1303 27.9929L6.97907 16.2354L9.89239 5.36566L3.26766 3.59009L5.32919e-07 15.7819Z" fill="black"/>
<path fill-rule="evenodd" clip-rule="evenodd" d="M121.736 45.6503H121.28L109.976 48.68L98.6723 45.6503H97.7652L86.4612 48.68L75.1573 45.6503H74.2502L62.9462 48.68L51.6422 45.6503H50.7352L39.4312 48.68L28.1272 45.6503H27.2201L15.9162 48.68L5.04838 45.7672L3.2728 52.392L15.9162 55.7807L27.6737 52.6294L39.4312 55.7807L51.1887 52.6294L62.9462 55.7807L74.7037 52.6294L86.4612 55.7807L98.2188 52.6294L109.976 55.7807L122.62 52.392L121.736 49.0942V45.6503Z" fill="black"/>
<path d="M18.4688 40.2882V17.5094H24.8143V40.2882H18.4688Z" fill="black"/>
<path d="M29.6352 40.2882V17.5094H40.4063C43.7255 17.5094 46.1986 18.3229 47.8257 19.95C49.1707 21.295 49.8432 23.0956 49.8432 25.3518C49.8432 28.6927 48.2813 31.0248 45.1573 32.3481L50.5917 40.2882H43.3025L38.7142 33.3895H35.9482V40.2882H29.6352ZM35.9482 28.4432H40.1134C41.1764 28.4432 42.0008 28.2046 42.5866 27.7273C43.194 27.2283 43.4977 26.545 43.4977 25.6772C43.4977 24.7878 43.194 24.1152 42.5866 23.6597C42.0008 23.2041 41.1656 22.9763 40.0809 22.9763H35.9482V28.4432Z" fill="black"/>
<path d="M53.8051 40.2882V17.5094H60.1506V40.2882H53.8051Z" fill="black"/>
<path d="M73.9204 40.6787C69.6249 40.6787 66.0671 39.4204 63.2469 36.9039L66.7613 32.7061C69.0392 34.5284 71.5015 35.4396 74.1481 35.4396C75.8837 35.4396 76.7514 34.8972 76.7514 33.8125C76.7514 33.3352 76.4911 32.9447 75.9704 32.641C75.4498 32.3156 74.4302 31.9793 72.9116 31.6322C71.5232 31.3068 70.3734 30.9923 69.4622 30.6885C68.5728 30.3631 67.6942 29.9401 66.8264 29.4194C65.9803 28.8771 65.3512 28.1937 64.939 27.3694C64.5268 26.545 64.3207 25.5579 64.3207 24.4081C64.3207 22.2604 65.1126 20.514 66.6962 19.169C68.3016 17.8023 70.4493 17.1189 73.1394 17.1189C76.8708 17.1189 79.9947 18.1277 82.5112 20.1452L79.3547 24.6034C77.2287 23.1065 75.1027 22.358 72.9767 22.358C72.2391 22.358 71.675 22.499 71.2845 22.7811C70.894 23.0631 70.6988 23.4319 70.6988 23.8875C70.6988 24.4081 70.9591 24.8203 71.4798 25.124C72.0221 25.4277 73.0743 25.7531 74.6363 26.1002C77.4999 26.7294 79.6259 27.5754 81.0143 28.6385C82.4244 29.6798 83.1295 31.2201 83.1295 33.2593C83.1295 35.5589 82.2943 37.3703 80.6238 38.6937C78.9534 40.017 76.7189 40.6787 73.9204 40.6787Z" fill="black"/>
<path d="M86.8504 40.2882V17.5094H93.1633V26.0352H101.266V17.5094H107.579V40.2882H101.266V31.6322H93.1633V40.2882H86.8504Z" fill="black"/>
</svg>
