<svg width="73" height="32" viewBox="0 0 73 32" fill="none" xmlns="http://www.w3.org/2000/svg">
<path d="M42.647 23.2872C40.1689 23.2872 38.1162 22.5613 36.4892 21.1094L38.5167 18.6876C39.8309 19.7389 41.2515 20.2646 42.7784 20.2646C43.7797 20.2646 44.2804 19.9517 44.2804 19.3259C44.2804 19.0505 44.1302 18.8252 43.8298 18.65C43.5294 18.4623 42.9411 18.2683 42.065 18.068C41.264 17.8803 40.6007 17.6988 40.075 17.5236C39.5618 17.3358 39.0549 17.0918 38.5543 16.7914C38.0662 16.4785 37.7032 16.0842 37.4654 15.6086C37.2276 15.133 37.1087 14.5635 37.1087 13.9002C37.1087 12.6611 37.5655 11.6536 38.4792 10.8776C39.4054 10.0891 40.6445 9.69482 42.1964 9.69482C44.3492 9.69482 46.1515 10.2768 47.6033 11.4408L45.7823 14.0128C44.5557 13.1492 43.3291 12.7174 42.1026 12.7174C41.677 12.7174 41.3516 12.7988 41.1263 12.9615C40.901 13.1242 40.7884 13.337 40.7884 13.5998C40.7884 13.9002 40.9386 14.138 41.239 14.3132C41.5519 14.4884 42.1589 14.6762 43.06 14.8764C44.7122 15.2394 45.9387 15.7275 46.7397 16.3408C47.5533 16.9416 47.9601 17.8302 47.9601 19.0067C47.9601 20.3334 47.4782 21.3785 46.5145 22.142C45.5507 22.9054 44.2616 23.2872 42.647 23.2872Z" fill="black"/>
<path d="M10.6553 23.0619V9.92011H14.3162V23.0619H10.6553Z" fill="black"/>
<path fill-rule="evenodd" clip-rule="evenodd" d="M17.0975 23.0619V9.92011H23.3117C25.2267 9.92011 26.6535 10.3895 27.5922 11.3282C28.3682 12.1042 28.7562 13.143 28.7562 14.4446C28.7562 16.3721 27.855 17.7176 26.0527 18.481L29.188 23.0619H24.9826L22.3355 19.0818H20.7397V23.0619H17.0975ZM20.7397 16.2282H23.1428C23.756 16.2282 24.2316 16.0905 24.5696 15.8151C24.92 15.5273 25.0953 15.133 25.0953 14.6324C25.0953 14.1192 24.92 13.7312 24.5696 13.4684C24.2316 13.2056 23.7498 13.0741 23.124 13.0741H20.7397V16.2282Z" fill="black"/>
<path d="M31.0419 9.92011V23.0619H34.7028V9.92011H31.0419Z" fill="black"/>
<path d="M50.1067 9.92011V23.0619H53.7489V18.068H58.4236V23.0619H62.0658V9.92011H58.4236V14.8389H53.7489V9.92011H50.1067Z" fill="black"/>
<path fill-rule="evenodd" clip-rule="evenodd" d="M8.92199 0H9.44531L15.9669 1.74793L22.4885 0H23.0119L29.5335 1.74793L36.0551 0H36.5784L43.1 1.74793L49.6216 0H50.145L56.6666 1.74793L63.1882 0H63.7115L70.7453 1.88521L70.7432 1.89305L70.7559 1.88965L72.6411 8.92346V9.44678L70.8932 15.9684L72.6411 22.49V23.0133L70.7559 30.0471L70.7428 30.0436L70.7432 30.045L63.4488 32L56.6656 30.182L49.8823 32L43.099 30.182L36.3157 32L29.5325 30.182L22.7492 32L15.9659 30.182L9.18263 32L1.89076 30.0456L1.88521 30.0471L0 23.0133V22.49L1.74794 15.9684L0 9.44678V8.92346L1.88521 1.88965L1.88969 1.89085L1.88818 1.88521L8.92199 0ZM68.6147 22.7517L67.5268 26.8105L63.4488 27.9035L56.9272 26.1555H56.4039L49.8823 27.9035L43.3607 26.1555H42.8373L36.3157 27.9035L29.7941 26.1555H29.2708L22.7492 27.9035L16.2276 26.1555H15.7042L9.18263 27.9035L5.11503 26.8132L4.02644 22.7517L5.8445 15.9684L4.02644 9.18512L5.11694 5.1164L9.18365 4.02644L15.9669 5.8445L22.7502 4.02644L29.5335 5.8445L36.3167 4.02644L43.1 5.8445L49.8833 4.02644L56.6666 5.8445L63.4498 4.02644L67.5248 5.11861L68.6147 9.18512L66.7966 15.9684L68.6147 22.7517Z" fill="black"/>
</svg>
