<svg width="24" height="24" viewBox="0 0 24 24" fill="none" xmlns="http://www.w3.org/2000/svg">
<path fill-rule="evenodd" clip-rule="evenodd" d="M2 10.5C2 5.80558 5.80558 2 10.5 2C15.1944 2 19 5.80558 19 10.5C19 15.1944 15.1944 19 10.5 19C5.80558 19 2 15.1944 2 10.5ZM10.5 4C6.91015 4 4 6.91015 4 10.5C4 14.0899 6.91015 17 10.5 17C14.0899 17 17 14.0899 17 10.5C17 6.91015 14.0899 4 10.5 4Z" fill="#131313"/>
<path fill-rule="evenodd" clip-rule="evenodd" d="M15.0937 15.0927C15.4842 14.7022 16.1174 14.7022 16.5079 15.0927L21.7079 20.2927C22.0984 20.6832 22.0984 21.3164 21.7079 21.7069C21.3174 22.0974 20.6842 22.0974 20.2937 21.7069L15.0937 16.5069C14.7032 16.1164 14.7032 15.4832 15.0937 15.0927Z" fill="#131313"/>
</svg>
