<svg width="32" height="32" viewBox="0 0 32 32" fill="none" xmlns="http://www.w3.org/2000/svg">
<rect width="32" height="32" rx="16" fill="#00A478"/>
<path d="M22.2602 8.35828H9.79693V11.3555H22.2602V8.35828Z" fill="white"/>
<path d="M23.4845 13.9781C23.3346 13.8657 23.1847 13.7533 22.9974 13.6783C22.6602 13.5285 22.3605 13.4161 22.0233 13.3411C21.3489 13.1538 20.712 13.0789 20.0376 12.9665C19.3632 12.8915 18.6888 12.8541 18.0144 12.8166C17.8271 12.8166 17.6772 12.8166 17.4899 12.7791V11.3554H14.4926V12.7791C13.6684 12.8166 12.8067 12.8541 11.9824 12.9665C11.308 13.0414 10.6337 13.1538 9.99674 13.3411C9.65954 13.4161 9.32235 13.5285 9.02262 13.6783C8.87276 13.7533 8.68543 13.8282 8.53557 13.9781C8.3857 14.0905 8.23584 14.3152 8.23584 14.5775C8.23584 14.8398 8.3857 15.0646 8.53557 15.177C8.68543 15.3268 8.83529 15.4018 8.98516 15.5142C9.28488 15.7015 9.62208 15.8139 9.95927 15.9263C10.6337 16.1511 11.2706 16.2635 11.945 16.3759C12.8067 16.5257 13.6309 16.6007 14.4926 16.6381V23.6418H17.4899V16.6381C18.3516 16.6007 19.1759 16.5257 20.0376 16.3759C20.712 16.2635 21.3864 16.1136 22.0233 15.9263C22.3605 15.8139 22.6602 15.7015 22.9974 15.5142C23.1473 15.4392 23.2971 15.3268 23.447 15.177C23.5968 15.0271 23.7467 14.8398 23.7467 14.5775C23.8216 14.3152 23.6343 14.1279 23.4845 13.9781ZM22.8101 15.0646C22.5478 15.2144 22.2106 15.2894 21.9109 15.3643C21.274 15.5142 20.637 15.6266 20.0001 15.7015C19.3632 15.7764 18.6888 15.8139 18.0144 15.8513C17.34 15.8888 16.7031 15.9263 16.0287 15.9263C14.7174 15.9263 13.3687 15.8888 12.0948 15.7015C11.4579 15.6266 10.7835 15.5142 10.1841 15.3643C9.88434 15.2894 9.54715 15.177 9.28488 15.0646C8.98516 14.9522 8.7229 14.7274 8.7229 14.5775C8.7229 14.5026 8.76036 14.4276 8.87276 14.3152C8.98516 14.2028 9.09756 14.1279 9.24742 14.053C9.50968 13.9031 9.80941 13.7907 10.1466 13.6783C10.7835 13.491 11.4204 13.3411 12.0574 13.2287C12.8816 13.1163 13.7059 13.0414 14.5301 12.9665V15.5891H17.5274V12.9665C17.6772 12.9665 17.8646 12.9665 18.0144 13.0039C18.6888 13.0414 19.3257 13.1538 20.0001 13.2287C20.637 13.3411 21.3114 13.491 21.9109 13.6783C22.2106 13.7907 22.5103 13.9031 22.8101 14.053C22.9599 14.1279 23.0723 14.2028 23.1847 14.3152C23.2971 14.4276 23.3346 14.5026 23.3346 14.5775C23.3346 14.7274 23.0723 14.9147 22.8101 15.0646Z" fill="white"/>
</svg>
