<svg width="32" height="32" viewBox="0 0 32 32" fill="none" xmlns="http://www.w3.org/2000/svg">
<path d="M0 16C0 16 0 16 0 16C2.48201e-06 7.16344 7.16344 2.48201e-06 16 0C16 0 16 0 16 0C16 0 16 0 16 0C24.8365 2.48201e-06 32 7.16344 32 16C32 16 32 16 32 16C32 16 32 16 32 16C32 24.8365 24.8365 32 16 32C16 32 16 32 16 32C16 32 16 32 16 32C7.16344 32 2.48201e-06 24.8365 0 16C0 16 0 16 0 16Z" fill="#2775C9"/>
<path d="M7.66996 11.2172C9.02786 8.86529 11.2213 7.29647 13.6589 6.66924V7.85381C11.6226 8.45282 9.80415 9.80501 8.65908 11.7883C6.29362 15.8854 7.69739 21.1244 11.7945 23.4898C12.3956 23.8369 13.0213 24.1028 13.6589 24.291V25.476C12.8248 25.2611 12.0057 24.9306 11.2234 24.479C6.58004 21.7981 4.9891 15.8606 7.66996 11.2172Z" fill="white"/>
<path d="M23.496 20.3544C22.3509 22.3378 20.5325 23.6899 18.4962 24.2889V25.4735C20.9338 24.8463 23.1272 23.2775 24.4851 20.9255C27.166 16.2821 25.575 10.3446 20.9317 7.66379C20.1493 7.2121 19.3302 6.88167 18.4962 6.66669V7.85176C19.1338 8.03994 19.7595 8.30586 20.3606 8.65291C24.4577 11.0184 25.8615 16.2573 23.496 20.3544Z" fill="white"/>
<path d="M16.6934 10.327V11.5379H16.8838C18.3379 11.5379 19.5166 12.7167 19.5166 14.1707H17.9042C17.9042 13.6072 17.4473 13.1504 16.8838 13.1504H14.96C14.5684 13.1504 14.251 13.4678 14.251 13.8594C14.251 14.1892 14.4784 14.4755 14.7997 14.55L17.6422 15.2097C18.7397 15.4643 19.5166 16.4422 19.5166 17.5688C19.5166 18.9064 18.4323 19.9907 17.0948 19.9907H16.8838V21.211H15.2713V19.9907H15.2461C13.806 19.9907 12.6385 18.8232 12.6385 17.383H14.251C14.251 17.9396 14.7021 18.3908 15.2587 18.3908H17.0733C17.5322 18.3908 17.9042 18.0188 17.9042 17.5599C17.9042 17.1755 17.6405 16.8413 17.2666 16.7518L14.3999 16.066C13.367 15.8189 12.6385 14.8955 12.6385 13.8335C12.6385 12.5657 13.6663 11.5379 14.9341 11.5379H15.081V10.327H16.6934Z" fill="white"/>
</svg>
