<svg width="20" height="18" viewBox="0 0 20 18" fill="none" xmlns="http://www.w3.org/2000/svg">
<path fill-rule="evenodd" clip-rule="evenodd" d="M19.5101 7.1713L19.5127 10.7942C19.4872 11.1393 19.4543 11.484 19.4141 11.8281C19.3468 12.4035 18.879 12.8677 18.2916 12.9333C16.4519 13.139 14.5481 13.139 12.7083 12.9333C12.1209 12.8677 11.6531 12.4035 11.5858 11.8281C11.3661 9.94912 11.3661 8.0509 11.5858 6.17189C11.6531 5.59648 12.1209 5.13234 12.7083 5.06669C14.5481 4.86107 16.4519 4.86107 18.2916 5.06669C18.879 5.13234 19.3468 5.59648 19.4141 6.17189C19.453 6.5045 19.485 6.8377 19.5101 7.1713ZM15.5 7.50001C14.6715 7.50001 14 8.17158 14 9.00001C14 9.82844 14.6715 10.5 15.5 10.5C16.3284 10.5 17 9.82844 17 9.00001C17 8.17158 16.3284 7.50001 15.5 7.50001Z" fill="black"/>
<path d="M18.9036 3.03973C19.059 3.30899 18.7672 3.61051 18.4582 3.57597C16.5077 3.35798 14.4922 3.35798 12.5417 3.57597C11.2723 3.71784 10.2457 4.71738 10.096 5.99764C9.86269 7.99242 9.86269 10.0076 10.096 12.0024C10.2457 13.2826 11.2723 14.2822 12.5417 14.4241C14.4922 14.642 16.5077 14.642 18.4582 14.4241C18.7693 14.3893 19.0635 14.6929 18.9065 14.9637C18.1279 16.3065 16.7398 17.2437 15.1268 17.4134L14.4749 17.482C11.1641 17.8304 7.82462 17.8074 4.51887 17.4135L4.08692 17.362C2.3048 17.1497 0.892749 15.7573 0.655378 13.9784C0.214483 10.6741 0.214483 7.32592 0.655378 4.02166C0.892749 2.2427 2.3048 0.850342 4.08692 0.637978L4.51886 0.586506C7.82461 0.19258 11.1641 0.169605 14.4749 0.518009L15.1268 0.586605C16.7412 0.756487 18.1271 1.6951 18.9036 3.03973Z" fill="black"/>
</svg>
