<svg width="48" height="48" viewBox="0 0 48 48" fill="none" xmlns="http://www.w3.org/2000/svg">
<rect width="48" height="48" rx="24" fill="white"/>
<path d="M31.2633 13.2183L26.2467 20.6667C26.1752 20.7739 26.145 20.9034 26.1617 21.0312C26.1783 21.1591 26.2407 21.2765 26.3373 21.3619C26.4338 21.4473 26.558 21.4948 26.6869 21.4957C26.8158 21.4965 26.9406 21.4507 27.0383 21.3667L31.9767 17.0833C32.0056 17.0574 32.0415 17.0405 32.0798 17.0347C32.1182 17.0288 32.1575 17.0343 32.1928 17.0503C32.2282 17.0664 32.2581 17.0925 32.2789 17.1252C32.2997 17.158 32.3105 17.1962 32.31 17.235V30.645C32.31 30.6861 32.2973 30.7261 32.2738 30.7597C32.2502 30.7933 32.2169 30.8189 32.1783 30.8329C32.1397 30.8469 32.0977 30.8487 32.0581 30.8381C32.0184 30.8274 31.983 30.8048 31.9567 30.7733L17.03 12.905C16.7899 12.6215 16.491 12.3937 16.1539 12.2374C15.8169 12.0811 15.4498 12.0001 15.0783 12H14.5567C13.8786 12 13.2283 12.2694 12.7488 12.7488C12.2694 13.2283 12 13.8786 12 14.5567V33.4433C12 34.1214 12.2694 34.7717 12.7488 35.2512C13.2283 35.7306 13.8786 36 14.5567 36C14.9939 36.0001 15.4238 35.8882 15.8054 35.6749C16.1871 35.4616 16.5077 35.1541 16.7367 34.7817L21.7533 27.3333C21.8248 27.2261 21.855 27.0966 21.8383 26.9688C21.8217 26.8409 21.7593 26.7235 21.6627 26.6381C21.5662 26.5527 21.442 26.5052 21.3131 26.5043C21.1842 26.5035 21.0594 26.5493 20.9617 26.6333L16.0233 30.9167C15.9944 30.9426 15.9585 30.9595 15.9202 30.9653C15.8818 30.9712 15.8425 30.9657 15.8072 30.9497C15.7718 30.9336 15.7419 30.9075 15.7211 30.8748C15.7003 30.842 15.6895 30.8038 15.69 30.765V17.3517C15.69 17.3106 15.7027 17.2706 15.7262 17.2369C15.7498 17.2033 15.7831 17.1778 15.8217 17.1638C15.8603 17.1497 15.9023 17.1479 15.9419 17.1586C15.9816 17.1693 16.017 17.1919 16.0433 17.2233L30.9683 35.095C31.2084 35.3785 31.5074 35.6063 31.8444 35.7626C32.1815 35.9189 32.5485 35.9999 32.92 36H33.4417C33.7776 36.0002 34.1102 35.9343 34.4206 35.8059C34.731 35.6775 35.013 35.4892 35.2506 35.2518C35.4882 35.0143 35.6766 34.7324 35.8052 34.4221C35.9338 34.1118 36 33.7792 36 33.4433V14.5567C36 13.8786 35.7306 13.2283 35.2512 12.7488C34.7717 12.2694 34.1214 12 33.4433 12C33.0061 11.9999 32.5762 12.1118 32.1946 12.3251C31.8129 12.5384 31.4923 12.8459 31.2633 13.2183Z" fill="#0A0C12"/>
</svg>
